<?xml version="1.0" standalone="no"?>
<!DOCTYPE svg PUBLIC "-//W3C//DTD SVG 20010904//EN"
 "http://www.w3.org/TR/2001/REC-SVG-20010904/DTD/svg10.dtd">
<svg version="1.0" xmlns="http://www.w3.org/2000/svg"
 width="850.000000pt" height="850.000000pt" viewBox="0 0 850.000000 850.000000"
 preserveAspectRatio="xMidYMid meet">
<metadata>
Created by potrace 1.14, written by Peter Selinger 2001-2017
</metadata>
<g transform="translate(0.000000,850.000000) scale(0.100000,-0.100000)"
fill="#000000" stroke="none">
<path d="M5130 6369 c-30 -4 -80 -10 -110 -13 -30 -4 -63 -9 -73 -12 -18 -6
-71 -15 -94 -16 -7 -1 -13 -4 -13 -7 0 -3 -11 -7 -25 -8 -45 -4 -55 -6 -55
-14 0 -4 -6 -6 -12 -5 -18 2 -192 -57 -199 -67 -3 -5 -9 -8 -13 -7 -12 3 -116
-43 -116 -52 0 -4 -7 -5 -15 -2 -8 4 -15 2 -15 -4 0 -5 -15 -16 -32 -23 -18
-7 -39 -20 -46 -29 -8 -8 -10 -9 -7 -2 6 11 3 11 -14 0 -12 -7 -21 -16 -21
-21 0 -4 -4 -6 -9 -3 -8 6 -59 -28 -73 -49 -4 -5 -8 -6 -8 -2 0 5 -7 2 -15 -5
-25 -23 -39 -33 -68 -48 -16 -8 -33 -22 -38 -32 -5 -10 -16 -18 -24 -18 -8 0
-20 -9 -27 -20 -7 -11 -16 -20 -21 -20 -4 0 -58 -50 -120 -112 -61 -61 -105
-107 -97 -103 8 5 -2 -9 -22 -31 -21 -21 -47 -48 -58 -60 -11 -12 -20 -26 -20
-33 0 -6 -5 -11 -12 -11 -6 0 -8 -3 -5 -7 4 -3 -2 -13 -13 -20 -11 -8 -18 -19
-15 -24 4 -5 1 -9 -4 -9 -6 0 -11 -3 -11 -7 0 -5 44 -9 98 -9 93 -1 177 -8
225 -19 193 -42 286 -72 415 -131 40 -18 75 -33 79 -33 3 0 9 -3 12 -8 12 -18
78 -53 86 -45 5 4 5 1 1 -5 -4 -8 -1 -13 8 -13 9 0 16 -4 16 -9 0 -5 8 -12 19
-16 10 -3 28 -13 38 -23 11 -9 35 -28 53 -42 18 -14 44 -36 58 -50 13 -14 21
-18 18 -10 -4 8 0 6 9 -5 8 -11 44 -49 78 -85 67 -70 95 -104 156 -190 22 -30
45 -61 51 -67 6 -7 8 -13 5 -13 -4 0 2 -12 13 -27 16 -23 80 -152 112 -228 13
-29 56 -165 65 -205 11 -47 19 -90 20 -110 1 -14 3 -25 5 -25 6 0 12 -109 12
-240 1 -141 -4 -217 -18 -275 -3 -14 -7 -34 -8 -45 -1 -11 -5 -26 -10 -33 -4
-7 -6 -16 -3 -19 3 -3 1 -17 -5 -32 -11 -29 -19 -60 -20 -78 -1 -7 -6 -13 -11
-13 -5 0 -7 -6 -4 -14 3 -7 0 -19 -6 -25 -6 -6 -7 -11 -2 -11 6 0 4 -4 -3 -9
-7 -4 -14 -18 -15 -29 -1 -12 -6 -22 -11 -22 -5 0 -7 -3 -3 -6 3 -3 -3 -21
-14 -40 -10 -19 -19 -41 -19 -49 0 -8 -3 -15 -8 -15 -4 0 -13 -15 -21 -32 -8
-18 -23 -45 -33 -60 -11 -16 -16 -28 -11 -28 4 0 0 -5 -10 -11 -9 -6 -15 -14
-12 -19 3 -4 -2 -11 -11 -14 -8 -3 -12 -10 -9 -16 3 -5 2 -10 -3 -10 -5 0 -21
-18 -36 -40 -30 -45 -51 -73 -81 -104 -11 -12 -19 -25 -17 -29 1 -5 -2 -6 -7
-3 -5 3 -15 -2 -22 -11 -12 -14 -12 -16 1 -9 8 5 -1 -5 -20 -22 -19 -17 -39
-31 -43 -32 -5 0 -5 -4 -2 -10 3 -5 0 -10 -8 -10 -8 0 -22 -11 -33 -24 -10
-14 -21 -23 -26 -20 -4 3 -8 1 -8 -5 0 -5 -13 -18 -29 -27 -17 -10 -27 -22
-24 -27 3 -6 2 -7 -4 -4 -5 3 -22 -5 -37 -18 -16 -14 -37 -27 -47 -30 -11 -4
-16 -11 -13 -18 4 -7 4 -9 -1 -5 -9 8 -65 -22 -65 -35 0 -4 -4 -5 -10 -2 -5 3
-10 2 -10 -3 0 -10 58 -36 73 -33 4 0 7 -4 7 -10 0 -5 5 -7 10 -4 6 3 10 1 10
-6 0 -7 3 -9 7 -6 3 4 12 2 20 -4 7 -6 13 -8 13 -4 0 4 7 2 15 -5 8 -7 15 -9
15 -5 0 4 7 2 15 -5 8 -7 15 -9 15 -5 0 4 6 3 13 -3 6 -5 28 -13 47 -18 50
-11 50 -11 53 -14 1 -1 9 -3 17 -5 8 -2 26 -7 40 -10 45 -11 75 -17 95 -20 11
-1 20 -3 20 -5 0 -2 14 -4 98 -14 26 -3 68 -9 95 -12 154 -19 479 1 597 36 17
5 44 11 60 13 17 2 37 7 45 10 25 10 105 29 106 26 0 -2 8 2 17 10 10 7 17 10
17 6 0 -4 7 -2 15 5 8 6 18 9 24 6 5 -3 11 -1 13 4 2 6 10 12 18 14 8 1 25 8
38 14 12 7 22 10 22 7 0 -3 11 2 25 11 14 9 25 12 25 8 0 -5 4 -4 8 1 12 16
69 45 76 38 3 -3 6 -1 6 6 0 7 5 9 10 6 6 -3 10 -2 10 3 0 4 16 14 35 22 19 8
35 18 35 22 0 5 5 6 10 3 6 -3 10 -2 10 3 0 10 81 58 93 54 5 -1 6 2 2 8 -6 9
8 14 28 11 5 -1 6 3 2 9 -6 9 8 14 28 11 5 -1 6 3 3 8 -4 5 3 12 14 16 11 3
20 11 20 16 0 5 3 8 8 7 4 -1 22 12 41 30 18 18 38 29 44 25 5 -3 7 -1 4 4 -4
6 1 17 10 24 14 12 16 12 9 -1 -4 -8 4 0 19 18 15 18 31 30 36 26 5 -3 8 0 7
8 -2 7 3 12 9 11 7 -2 12 1 10 5 -1 4 24 33 56 65 31 31 54 57 50 57 -4 0 8
13 25 28 18 16 32 32 32 37 0 4 9 16 21 26 11 9 21 21 22 26 1 4 6 7 10 5 5
-1 6 1 3 6 -3 5 2 18 10 28 9 10 12 13 8 5 -5 -9 -3 -12 4 -7 7 4 12 15 12 26
0 10 7 21 16 24 8 3 12 10 9 16 -3 6 1 13 9 16 9 3 14 10 11 14 -2 4 4 15 15
25 11 10 17 22 14 26 -3 5 0 9 5 9 6 0 11 7 11 15 0 8 5 15 11 15 5 0 7 5 4
10 -3 6 -1 10 5 10 6 0 9 4 6 9 -3 5 1 12 10 15 8 3 13 10 10 15 -3 5 1 14 9
21 8 7 12 16 9 21 -3 5 0 9 5 9 6 0 10 3 9 8 -1 4 5 23 14 42 19 42 41 93 43
100 2 5 22 56 32 80 3 8 7 20 8 25 7 40 19 75 25 75 3 0 7 6 7 13 1 6 4 28 7
47 4 19 7 41 8 48 1 6 4 12 8 12 3 0 7 10 8 23 0 12 4 36 7 52 3 17 7 41 9 55
3 14 5 25 6 25 1 0 6 49 15 155 7 93 4 355 -5 355 -1 0 -4 16 -6 35 -5 55 -10
91 -19 145 -5 28 -8 53 -7 58 1 4 -2 7 -6 7 -4 0 -8 8 -9 18 -1 15 -8 48 -17
77 -2 6 -7 25 -11 43 -4 18 -11 35 -16 38 -4 2 -6 11 -2 19 3 8 1 15 -4 15 -5
0 -9 8 -10 18 -1 9 -10 35 -19 57 -10 22 -17 43 -16 47 1 3 -5 11 -13 18 -7 6
-11 19 -8 27 4 11 2 14 -5 9 -8 -5 -10 -2 -6 8 3 9 1 16 -5 16 -6 0 -10 3 -9
8 4 14 -13 52 -23 52 -6 0 -7 5 -4 10 3 6 1 10 -4 10 -6 0 -10 3 -9 8 4 10
-56 115 -77 136 -9 9 -14 16 -11 16 4 0 -12 27 -35 60 -22 33 -45 60 -50 60
-6 0 -8 4 -5 8 3 5 -17 33 -45 63 -27 30 -49 56 -48 57 0 2 -20 26 -45 53 -25
27 -46 47 -46 45 0 -3 -21 17 -46 44 -26 27 -51 47 -57 43 -5 -3 -7 -1 -4 4 4
6 -9 21 -28 34 -19 13 -35 28 -35 32 0 5 -4 5 -10 2 -5 -3 -10 -2 -10 3 0 9
-114 95 -124 93 -3 0 -15 8 -26 19 -12 12 -26 18 -32 14 -7 -4 -8 -3 -4 4 6
11 -6 16 -26 13 -5 0 -8 4 -8 9 0 9 -49 34 -59 30 -2 -1 -7 3 -10 8 -7 12
-150 82 -167 82 -7 0 -14 5 -16 11 -2 6 -16 12 -31 12 -15 1 -27 6 -27 11 0 5
-3 6 -7 3 -3 -4 -11 -3 -17 2 -12 9 -112 43 -136 46 -8 1 -22 5 -30 8 -50 19
-190 47 -310 63 -69 9 -348 11 -410 3z"/>
<path d="M3497 5453 c-2 -1 -23 -4 -47 -8 -105 -14 -145 -21 -145 -25 0 -1
-13 -4 -30 -6 -16 -3 -35 -10 -42 -16 -7 -6 -13 -8 -13 -5 0 22 -337 -125
-379 -164 -10 -10 -21 -16 -24 -13 -2 2 -10 -2 -17 -11 -7 -8 -16 -15 -21 -15
-16 0 -140 -100 -206 -165 -35 -34 -64 -60 -66 -59 -2 2 -15 -15 -30 -38 -15
-23 -27 -38 -27 -34 0 9 -56 -62 -108 -137 -18 -26 -30 -47 -27 -47 4 0 -1 -7
-10 -16 -9 -9 -36 -56 -61 -105 -44 -90 -54 -98 -106 -90 -16 2 -164 -32 -174
-40 -6 -5 -13 -6 -16 -4 -10 10 -188 -64 -188 -78 0 -4 -4 -6 -9 -2 -26 16
-287 -194 -363 -292 -74 -95 -194 -322 -186 -350 1 -4 -4 -19 -11 -31 -7 -13
-10 -26 -7 -29 3 -4 1 -12 -5 -19 -6 -8 -9 -21 -5 -29 3 -8 2 -15 -3 -15 -4 0
-8 -6 -9 -12 0 -7 -4 -44 -8 -83 -25 -230 15 -448 116 -642 60 -114 162 -251
182 -245 5 1 7 -2 4 -7 -7 -11 104 -111 181 -163 72 -49 133 -81 133 -71 0 5
4 3 8 -3 10 -17 139 -69 188 -77 10 -1 25 -6 32 -11 7 -4 16 -6 19 -3 3 3 15
2 28 -3 55 -21 268 -30 358 -16 20 3 54 9 75 12 20 3 41 9 47 12 5 3 21 7 36
9 15 1 39 8 55 14 16 7 31 13 34 14 50 17 157 69 209 103 l44 28 66 -32 c113
-54 135 -64 156 -67 11 -1 25 -5 30 -9 17 -10 115 -37 115 -31 0 3 7 0 15 -7
9 -7 18 -10 21 -7 3 3 18 1 32 -4 14 -6 42 -12 62 -14 19 -2 58 -7 85 -11 96
-14 428 -5 456 12 4 2 24 6 45 10 22 3 47 10 57 16 10 5 21 7 24 5 4 -4 34 5
133 39 8 3 16 5 18 4 1 0 15 6 31 14 16 9 31 13 33 10 3 -2 11 2 18 11 7 8 21
15 31 15 11 0 19 5 19 11 0 5 5 7 10 4 6 -3 10 -1 10 4 0 6 9 11 19 11 35 0
33 20 -3 35 -19 8 -38 19 -41 25 -4 6 -10 8 -15 5 -4 -3 -13 2 -20 10 -7 8
-16 12 -21 9 -5 -3 -9 -1 -9 3 0 9 -77 60 -85 56 -2 -2 -15 7 -29 20 -13 12
-40 33 -60 47 -69 48 -137 103 -202 166 -13 12 -25 19 -28 16 -3 -3 -6 1 -6
10 0 15 -49 64 -51 50 0 -4 -4 3 -10 16 -5 13 -13 20 -19 17 -6 -4 -9 -3 -8 2
2 4 -16 32 -40 61 -23 30 -42 50 -42 45 0 -4 -6 2 -13 14 -6 12 -40 62 -74
112 -35 49 -63 94 -63 99 0 6 -4 12 -8 14 -9 3 -104 192 -134 263 -33 81 -56
152 -78 235 -12 47 -24 92 -27 100 -3 8 -7 24 -7 35 -2 17 -9 62 -22 130 -7
37 -18 199 -18 275 0 112 11 253 30 360 16 92 74 314 94 355 5 11 21 49 35 85
14 36 39 90 55 121 16 31 27 59 23 63 -3 3 -1 6 5 6 11 0 50 65 50 84 0 5 7
13 16 18 9 5 14 13 11 19 -4 5 -1 9 4 9 6 0 11 4 11 9 0 7 -87 11 -93 4z"/>
</g>
</svg>
